<svg width="35" height="35" viewBox="0 0 35 35" fill="none" xmlns="http://www.w3.org/2000/svg">
<g clip-path="url(#clip0_5_771)">
<path fill-rule="evenodd" clip-rule="evenodd" d="M14.2133 3.55323C8.32599 3.55323 3.55323 8.32599 3.55323 14.2133C3.55323 20.1006 8.32599 24.873 14.2133 24.873C20.1006 24.873 24.873 20.1006 24.873 14.2133C24.873 8.32599 20.1006 3.55323 14.2133 3.55323ZM0 14.2133C0 6.36344 6.36344 0 14.2133 0C22.0631 0 28.4266 6.36344 28.4266 14.2133C28.4266 22.0631 22.0631 28.4266 14.2133 28.4266C6.36344 28.4266 0 22.0631 0 14.2133Z" fill="#3B82F6"/>
<path fill-rule="evenodd" clip-rule="evenodd" d="M20.4316 14.2133C20.4316 10.7789 17.6473 7.99495 14.2133 7.99495V4.44172C19.6098 4.44172 23.9848 8.81635 23.9848 14.2133H20.4316Z" fill="#3B82F6"/>
<path fill-rule="evenodd" clip-rule="evenodd" d="M24.353 21.84L35.0127 32.5001L32.5004 35.0128L21.8403 24.3527L24.353 21.84Z" fill="#3B82F6"/>
</g>
<defs>
<clipPath id="clip0_5_771">
<rect width="35" height="35" fill="white"/>
</clipPath>
</defs>
</svg>
